<?xml version="1.0" encoding="UTF-8" standalone="no"?>
<!-- Created with Inkscape (http://www.inkscape.org/) -->

<svg
   xmlns:dc="http://purl.org/dc/elements/1.1/"
   xmlns:cc="http://creativecommons.org/ns#"
   xmlns:rdf="http://www.w3.org/1999/02/22-rdf-syntax-ns#"
   xmlns:svg="http://www.w3.org/2000/svg"
   xmlns="http://www.w3.org/2000/svg"
   xmlns:sodipodi="http://sodipodi.sourceforge.net/DTD/sodipodi-0.dtd"
   xmlns:inkscape="http://www.inkscape.org/namespaces/inkscape"
   width="50mm"
   height="50mm"
   viewBox="0 0 50 50"
   version="1.1"
   id="svg8"
   inkscape:version="0.92.5 (2060ec1f9f, 2020-04-08)"
   sodipodi:docname="logo.svg">
  <defs
     id="defs2" />
  <sodipodi:namedview
     id="base"
     pagecolor="#ffffff"
     bordercolor="#666666"
     borderopacity="1.0"
     inkscape:pageopacity="0.0"
     inkscape:pageshadow="2"
     inkscape:zoom="0.35"
     inkscape:cx="926.1476"
     inkscape:cy="-166.80432"
     inkscape:document-units="mm"
     inkscape:current-layer="layer1"
     showgrid="false"
     inkscape:window-width="1920"
     inkscape:window-height="1007"
     inkscape:window-x="0"
     inkscape:window-y="0"
     inkscape:window-maximized="1"
     inkscape:snap-global="false" />
  <metadata
     id="metadata5">
    <rdf:RDF>
      <cc:Work
         rdf:about="">
        <dc:format>image/svg+xml</dc:format>
        <dc:type
           rdf:resource="http://purl.org/dc/dcmitype/StillImage" />
        <dc:title />
      </cc:Work>
    </rdf:RDF>
  </metadata>
  <g
     inkscape:label="Layer 1"
     inkscape:groupmode="layer"
     id="layer1"
     transform="translate(204.20248,-101.03496)">
    <circle
       style="opacity:1;fill:#cedcf4;fill-opacity:1;stroke:none;stroke-width:0.60000002;stroke-miterlimit:4;stroke-dasharray:none;stroke-dashoffset:0;stroke-opacity:1"
       id="path1029"
       cx="-149.48209"
       cy="155.75536"
       r="54.720398" />
    <path
       style="opacity:1;fill:#7dbeb8;fill-opacity:1;stroke:none;stroke-width:0.60000002;stroke-miterlimit:4;stroke-dasharray:none;stroke-dashoffset:0;stroke-opacity:1"
       d="m -177.13285,118.83202 c -4.67504,0 -8.51946,3.4256 -9.17309,7.91373 h 73.64771 c -0.65363,-4.48813 -4.49805,-7.91373 -9.17309,-7.91373 z m -9.27231,12.63851 v 48.56964 h 10.45725 v -4.99246 h -5.9092 c -1.55365,0 -2.80448,-1.25083 -2.80448,-2.80448 0,-1.55365 1.25083,-2.80448 2.80448,-2.80448 h 5.9092 v -24.25123 h -5.9092 c -1.55365,0 -2.80448,-1.25083 -2.80448,-2.80448 0,-1.55364 1.25083,-2.80448 2.80448,-2.80448 h 5.9092 v -8.10803 z m 15.18203,0 v 8.10803 h 0.61701 c 1.55365,0 2.80448,1.25084 2.80448,2.80448 0,1.55365 -1.25083,2.80448 -2.80448,2.80448 h -0.61701 v 24.25123 h 0.61701 c 1.55365,0 2.80448,1.25083 2.80448,2.80448 0,1.55365 -1.25083,2.80448 -2.80448,2.80448 h -0.61701 v 4.99246 h 58.66412 v -48.56964 z m 33.1928,7.49049 a 17.172065,17.172065 0 0 1 17.17208,17.17208 17.172065,17.172065 0 0 1 -17.17208,17.17208 17.172065,17.172065 0 0 1 -17.17208,-17.17208 17.172065,17.172065 0 0 1 17.17208,-17.17208 z m 0.001,3.4091 c -1.60542,0 -2.78015,0.17763 -4.19044,0.63407 -4.00482,1.29612 -7.18927,4.33995 -8.69507,8.31009 -1.37056,3.6136 -1.10276,7.80681 0.71778,11.23807 2.12583,4.0066 6.06775,6.71919 10.55285,7.26209 1.35512,0.16403 3.12005,0.0783 4.53615,-0.22066 4.85931,-1.02599 8.90049,-4.81654 10.30583,-9.66608 0.78507,-2.70908 0.68067,-5.84665 -0.28215,-8.477 -0.46598,-1.27299 -1.39997,-2.93392 -2.22105,-3.94963 -1.1781,-1.45739 -2.81263,-2.79192 -4.42661,-3.61476 -2.09563,-1.06844 -3.95514,-1.51619 -6.29729,-1.51619 z m -1.12912,2.27635 c 0.16222,0.0107 0.13487,0.51019 0.13487,2.51767 v 2.574 l -0.31729,-0.006 c -0.89145,-0.0166 -3.10731,-0.37412 -3.10731,-0.50126 0,-0.11404 0.52085,-1.31925 0.78342,-1.81281 0.611,-1.14854 1.47137,-2.18178 2.14715,-2.57917 0.17235,-0.10135 0.28541,-0.19762 0.35916,-0.19275 z m 2.25825,0 c 0.0737,-0.005 0.1868,0.0914 0.35916,0.19275 0.69205,0.40697 1.55519,1.45392 2.17557,2.63912 0.33692,0.64363 0.79293,1.74273 0.74363,1.79213 -0.0534,0.0534 -1.02342,0.23616 -1.72858,0.32556 -0.36455,0.0462 -0.89257,0.10063 -1.17357,0.12093 l -0.51108,0.0372 v -2.58227 c 0,-2.01365 -0.0274,-2.51443 0.13487,-2.52542 z m 3.6928,0.74827 c 0.16413,0.0121 1.49647,0.79562 2.10995,1.24954 0.51418,0.38044 1.35289,1.09878 1.35289,1.15858 0,0.0539 -0.6957,0.41259 -1.28106,0.65991 -0.29463,0.12449 -0.56013,0.22634 -0.58963,0.22634 -0.0295,0 -0.0964,-0.13094 -0.14882,-0.29042 -0.24151,-0.73525 -0.8473,-1.99293 -1.33016,-2.76055 -0.0713,-0.11332 -0.1297,-0.21893 -0.1297,-0.23513 0,-0.006 0.006,-0.009 0.0165,-0.008 z m -9.62732,0.008 c 0,0.0161 -0.0584,0.12183 -0.1297,0.23513 -0.48286,0.76763 -1.08865,2.02531 -1.33015,2.76055 -0.0524,0.15948 -0.1246,0.28932 -0.1602,0.28732 -0.18108,-0.007 -1.85847,-0.80456 -1.85932,-0.88366 -4.7e-4,-0.033 0.58412,-0.55714 1.02164,-0.91623 0.40537,-0.33271 1.30363,-0.90891 1.91927,-1.23093 0.29619,-0.15491 0.53846,-0.26828 0.53846,-0.25218 z m -4.8457,4.02559 c 0.0126,-0.0126 0.4063,0.17305 0.87437,0.41238 0.46807,0.23934 1.06846,0.51722 1.33429,0.61753 0.2658,0.10031 0.48317,0.2126 0.48317,0.2496 0,0.037 -0.0488,0.303 -0.108,0.59118 -0.1866,0.9069 -0.44442,3.05008 -0.44442,3.69383 0,0.0975 -0.0918,0.10284 -2.09651,0.10284 h -2.096 l 0.0305,-0.28991 c 0.12004,-1.14375 0.5848,-2.72776 1.12241,-3.82509 0.2608,-0.53229 0.7859,-1.43807 0.9002,-1.55236 z m 19.30219,0 c 0.11429,0.11429 0.6394,1.02007 0.9002,1.55236 0.53761,1.09733 1.00236,2.68134 1.12241,3.82509 l 0.0305,0.28991 h -2.09599 -2.09652 l -5.2e-4,-0.15193 c -0.002,-0.63984 -0.25874,-2.74483 -0.44389,-3.64474 -0.0593,-0.28818 -0.10801,-0.55418 -0.10801,-0.59118 0,-0.037 0.21737,-0.14929 0.48318,-0.2496 0.2658,-0.10031 0.86622,-0.37819 1.33428,-0.61753 0.46807,-0.23933 0.86177,-0.42498 0.87437,-0.41238 z m -14.65234,1.81436 c 0.007,-0.008 0.30839,0.0464 0.67024,0.11989 0.73176,0.14868 1.69894,0.28538 2.3704,0.33538 0.24302,0.0181 0.55955,0.0467 0.70383,0.0636 l 0.26252,0.0305 v 1.65158 1.6521 h -2.25206 -2.25154 l 0.0388,-0.59377 c 0.0554,-0.84238 0.14003,-1.52321 0.30334,-2.44429 0.078,-0.44049 0.14751,-0.80694 0.15451,-0.81494 z m 10.00352,10e-4 c 0.0262,0.0299 0.29944,1.65349 0.35554,2.11201 0.0334,0.2734 0.0786,0.77651 0.10025,1.11828 l 0.0393,0.62167 h -2.25154 -2.25154 v -1.65313 -1.65313 l 0.2899,-0.03 c 0.1595,-0.0165 0.48872,-0.0447 0.73174,-0.0631 0.65282,-0.0492 1.57044,-0.18111 2.31614,-0.33228 0.36242,-0.0735 0.66424,-0.1274 0.67024,-0.1204 z m -14.61306,5.89524 h 2.0991 l 5.2e-4,0.15193 c 0.001,0.491 0.1948,2.22263 0.34158,3.05098 0.24506,1.38313 0.27899,1.23533 -0.3421,1.48621 -0.2886,0.11658 -0.81028,0.35473 -1.15962,0.52969 h -5.2e-4 c -0.34935,0.17496 -0.703,0.36649 -0.786,0.42529 l -0.15089,0.10646 -0.28267,-0.43098 c -0.3431,-0.52373 -0.92486,-1.69801 -1.15652,-2.33423 -0.22722,-0.62402 -0.47127,-1.61025 -0.57619,-2.32957 -0.047,-0.32286 -0.0853,-0.60225 -0.0853,-0.62115 0,-0.0189 0.94421,-0.0346 2.09858,-0.0346 z m 4.12585,0 h 2.24534 2.24534 v 1.6738 1.6738 l -1.02836,0.0956 c -0.56544,0.0525 -1.39201,0.15844 -1.83658,0.23513 -0.44426,0.0766 -0.88513,0.15323 -0.97979,0.17002 l -0.17208,0.03 -0.11575,-0.62735 c -0.17702,-0.9628 -0.28621,-1.82988 -0.32402,-2.57401 z m 6.47919,0 h 2.25154 2.25154 l -0.0413,0.64906 c -0.0505,0.79013 -0.17313,1.76486 -0.32711,2.59622 -0.12708,0.68612 -0.11148,0.66939 -0.54467,0.56173 -0.70477,-0.17515 -2.65876,-0.43634 -3.27267,-0.43719 l -0.31729,-5.1e-4 v -1.68465 z m 6.51743,0 h 2.0991 c 1.15437,0 2.09858,0.0157 2.09858,0.0346 0,0.1999 -0.20541,1.34481 -0.33125,1.84588 -0.28535,1.13625 -0.83642,2.42709 -1.43454,3.35948 -0.15852,0.24713 -0.31691,0.44687 -0.35191,0.44287 -0.035,-0.003 -0.38695,-0.17609 -0.78187,-0.38344 -0.39491,-0.20734 -0.95422,-0.47027 -1.24282,-0.58446 -0.28859,-0.11419 -0.54617,-0.22563 -0.57257,-0.24753 -0.0265,-0.0221 0.0147,-0.3692 0.093,-0.77618 0.0778,-0.40494 0.16854,-0.91962 0.20154,-1.1436 0.0634,-0.43015 0.2223,-2.13787 0.22272,-2.39572 z m -6.51743,5.35006 0.2899,0.03 c 0.1595,0.0165 0.48872,0.045 0.73174,0.0636 0.24303,0.0185 0.87662,0.10612 1.40767,0.19482 0.53104,0.0886 0.9723,0.16123 0.9803,0.16123 0.0895,0 -0.27018,0.9042 -0.70125,1.7632 -0.54598,1.08798 -1.32409,2.08154 -2.01176,2.56832 -0.18566,0.13142 -0.41858,0.28011 -0.51728,0.33021 l -0.17932,0.091 v -2.60087 z m -1.98851,0.009 v 2.59519 c 0,1.42739 -0.007,2.59519 -0.015,2.59519 -0.008,0 -0.17581,-0.0933 -0.37259,-0.20723 -0.48422,-0.28034 -1.27938,-1.08414 -1.70532,-1.72392 -0.39882,-0.59907 -0.87551,-1.52375 -1.14566,-2.22312 -0.10228,-0.26467 -0.18604,-0.50277 -0.18604,-0.52917 0,-0.0993 1.84509,-0.39234 2.99671,-0.47594 z m -5.38623,1.05833 c 0.008,0.01 0.0782,0.19095 0.15451,0.40359 0.31015,0.86459 0.75733,1.78637 1.30638,2.69286 0.0691,0.11392 0.11147,0.20722 0.0946,0.20722 -0.0556,0 -0.98968,-0.5053 -1.35857,-0.73484 -0.83569,-0.51994 -2.13814,-1.59134 -2.06965,-1.70222 0.0617,-0.0999 1.82786,-0.91711 1.87276,-0.86661 z m 12.80593,0.0238 c 0.0196,-0.008 0.0404,-0.006 0.0646,0.001 0.19509,0.0591 1.42939,0.62419 1.62884,0.7457 l 0.19276,0.1173 -0.38344,0.35605 c -0.68729,0.63845 -1.57265,1.26222 -2.46032,1.73323 -0.42772,0.22695 -0.66249,0.33332 -0.66249,0.29972 0,-0.0135 0.10179,-0.18118 0.22634,-0.37207 0.29771,-0.45628 0.92882,-1.76146 1.16221,-2.40347 0.12215,-0.33609 0.17283,-0.45263 0.23151,-0.47749 z m -54.70209,21.18424 c 0.65363,4.48812 4.49805,7.91373 9.17309,7.91373 h 55.30153 c 4.67504,0 8.51946,-3.42561 9.17309,-7.91373 z"
       id="rect899"
       inkscape:connector-curvature="0" />
  </g>
</svg>
